<?xml version='1.0' encoding='iso-8859-1'?>
<svg version="1.1" xmlns="http://www.w3.org/2000/svg" viewBox="0 0 278.07 278.07" xmlns:xlink="http://www.w3.org/1999/xlink" enable-background="new 0 0 278.07 278.07">
  <path d="m270.73,129.739c-0.863-1.093-15.04-18.764-36.423-30.159 7.067-23.182 4.585-45.711 4.423-47.095l-1.384-11.762-11.762-1.384c-1.384-0.161-23.913-2.644-47.095,4.423-11.394-21.382-29.065-35.559-30.158-36.422l-9.296-7.34-9.296,7.34c-1.093,0.863-18.764,15.04-30.159,36.423-23.181-7.067-45.711-4.584-47.095-4.423l-11.763,1.384-1.383,11.762c-0.163,1.384-2.644,23.913 4.423,47.095-21.382,11.394-35.558,29.065-36.422,30.158l-7.34,9.296 7.34,9.296c0.863,1.093 15.04,18.764 36.422,30.159-7.067,23.182-4.586,45.711-4.423,47.095l1.383,11.762 11.763,1.384c0.586,0.068 4.963,0.554 11.575,0.554 9.004,0 22.152-0.907 35.517-4.981 11.394,21.385 29.068,35.564 30.161,36.427l9.296,7.34 9.296-7.34c1.093-0.864 18.767-15.042 30.161-36.427 13.366,4.074 26.514,4.981 35.518,4.981 6.61,0 10.989-0.485 11.575-0.554l11.762-1.384 1.384-11.762c0.163-1.384 2.645-23.913-4.423-47.095 21.383-11.394 35.559-29.065 36.423-30.159l7.34-9.296-7.34-9.296zm-61.551-60.884c-0.508,12.179-3.285,30.19-14.311,41.216-1.931,1.931-4.114,3.606-6.458,5.073-5.39-11.095-14.41-20.111-25.507-25.496 1.465-2.317 3.144-4.495 5.096-6.447 10.494-10.494 28.184-13.739 41.18-14.346zm-70.144,95.04c-13.707,0-24.859-11.152-24.859-24.859s11.152-24.859 24.859-24.859 24.859,11.152 24.859,24.859-11.152,24.859-24.859,24.859zm-.025-124.084c4.222,4.589 9.091,10.686 12.851,17.627-1.75,1.412-3.448,2.923-5.075,4.551-2.933,2.933-5.499,6.087-7.751,9.384-2.252-3.296-4.818-6.451-7.751-9.384-1.613-1.613-3.294-3.111-5.027-4.512 3.646-6.754 8.376-12.86 12.753-17.666zm-28.939,43.39c1.931,1.931 3.606,4.114 5.073,6.458-11.095,5.39-20.111,14.41-25.496,25.507-2.317-1.465-4.495-3.144-6.447-5.096-10.493-10.492-13.739-28.183-14.345-41.179 12.178,0.507 30.189,3.285 41.215,14.31zm-48.083,63.585c-1.613,1.613-3.111,3.294-4.512,5.027-6.753-3.646-12.859-8.376-17.665-12.753 4.589-4.221 10.685-9.091 17.626-12.85 1.412,1.75 2.923,3.447 4.551,5.075 2.934,2.934 6.092,5.496 9.389,7.748-3.298,2.251-6.455,4.818-9.389,7.753zm6.902,62.429c0.509-12.179 3.285-30.19 14.311-41.216 1.931-1.931 4.114-3.606 6.458-5.073 5.39,11.095 14.41,20.111 25.508,25.496-1.465,2.317-3.144,4.495-5.096,6.447-10.494,10.494-28.185,13.739-41.181,14.346zm70.169,29.045c-4.223-4.591-9.094-10.689-12.854-17.633 1.75-1.412 3.451-2.917 5.079-4.545 2.933-2.933 5.499-6.087 7.751-9.384 2.252,3.296 4.818,6.451 7.751,9.384 1.613,1.613 3.298,3.104 5.03,4.505-3.647,6.756-8.378,12.865-12.757,17.673zm28.94-43.391c-1.931-1.931-3.606-4.114-5.073-6.458 11.095-5.39 20.111-14.41 25.496-25.508 2.317,1.465 4.495,3.144 6.447,5.096 10.503,10.502 13.744,28.216 14.347,41.215-13.012-0.603-30.718-3.846-41.217-14.345zm52.634-43.008c-1.412-1.75-2.923-3.448-4.551-5.075-2.935-2.935-6.091-5.502-9.389-7.754 3.297-2.252 6.455-4.814 9.389-7.748 1.613-1.613 3.111-3.294 4.512-5.027 6.753,3.646 12.859,8.376 17.666,12.754-4.59,4.221-10.686,9.091-17.627,12.85z"/>
</svg>
