<?xml version="1.0" encoding="iso-8859-1"?>
<!-- Generator: Adobe Illustrator 18.0.0, SVG Export Plug-In . SVG Version: 6.00 Build 0)  -->
<!DOCTYPE svg PUBLIC "-//W3C//DTD SVG 1.1//EN" "http://www.w3.org/Graphics/SVG/1.1/DTD/svg11.dtd">
<svg version="1.1" id="Capa_1" xmlns="http://www.w3.org/2000/svg" xmlns:xlink="http://www.w3.org/1999/xlink" x="0px" y="0px"
	 viewBox="0 0 471.434 471.434" style="enable-background:new 0 0 471.434 471.434;" xml:space="preserve">
<g>
	<path d="M81.245,212.419c-9.902,13.127-19.256,25.526-8.273,47.079c4.957,9.729,18.132,11.771,28.311,11.771
		c20.904,0,45.125-8.057,63.033-19.182c-2.994-3.719-6.111-8.237-6.111-13.949c0-6.576,4.131-11.571,7.451-15.585
		c1.601-1.936,3.415-4.129,3.882-5.569c0.523-1.607,0.357-4.439,0.197-7.178c-0.299-5.108-0.67-11.466,3.069-16.605
		c2.653-3.644,6.503-5.517,10.286-6.759c-3.608-8.125-8.398-16.488-14.204-24.48c-14.902-20.512-32.983-33.767-46.06-33.767
		c-2.845,0-5.39,0.592-7.78,1.81c-21.868,11.143-21.404,26.636-20.912,43.039c0.22,7.359,0.429,14.31-1.603,20.561
		C90.333,200.372,85.919,206.224,81.245,212.419z"/>
	<path d="M464.076,203.816c-7.567-14.789-26.952-17.893-41.88-17.893c-9.41,0-19.295,1.161-29.221,3.252
		c1.645,2.602,3.775,5.369,5.992,8.235c10.528,13.614,24.948,32.259,9.778,62.032c-5.735,11.255-17.472,17.797-34.132,19.144
		c4.004,3.046,7.514,6.264,10.369,9.608c7.716,9.035,10.98,18.948,9.44,28.668c-5.153,32.537-27.667,39.408-44.107,44.425
		c-2.622,0.8-5.172,1.586-7.547,2.43c17.125,17.508,34.971,27.756,49.438,27.756c4.384,0,8.483-0.96,12.185-2.855
		c32.102-16.428,31.354-39.981,30.631-62.76c-0.318-10.034-0.619-19.512,2.054-27.791c2.912-9.018,8.93-17.024,15.301-25.501
		C466.721,253.483,480.269,235.458,464.076,203.816z"/>
	<path d="M270.444,394.702c2.878,0.456,5.642,0.687,8.214,0.687c18.176,0,25.863-11.274,34.001-23.211
		c4.148-6.084,8.066-11.83,13.384-15.693c5.755-4.182,12.766-6.321,20.188-8.587c15.727-4.8,30.581-9.333,34.364-33.225
		c0.893-5.63-1.213-11.479-6.258-17.386c-8.141-9.532-23.127-18.049-39.956-23.652c-1.862-0.538-3.721-1.116-5.575-1.729
		c-9.632-2.772-19.668-4.561-29.237-5.027c0.292,5.036,0.549,11.19-3.092,16.193c-3.771,5.18-9.963,6.789-14.938,8.081
		c-2.629,0.683-5.348,1.389-6.67,2.351c-1.28,0.933-2.769,3.273-4.207,5.537c-2.776,4.368-6.232,9.804-12.397,11.806
		c-1.511,0.491-3.127,0.739-4.804,0.739c-1.835,0-3.626-0.305-5.359-0.754c-3.383,17.09-3.525,36.966,0.635,54.293
		C251.173,375.273,257.234,392.61,270.444,394.702z"/>
	<path d="M126.439,366.003c-16.52-4.826-39.144-11.435-44.37-44.438c-1.539-9.719,1.725-19.632,9.44-28.667
		c2.257-2.643,4.924-5.206,7.915-7.669c-19.207-0.406-32.657-7.071-38.927-19.376c-14.955-29.353-0.779-48.145,9.572-61.866
		c1.457-1.931,2.882-3.822,4.177-5.669c-8.438-1.537-16.798-2.384-24.81-2.384c-15.076,0-34.636,3.13-42.2,18.042
		c-16.315,32.161-1.866,50.776,12.108,68.778c6.156,7.931,11.971,15.422,14.674,23.692c2.944,9.006,2.782,19.021,2.61,29.623
		c-0.386,23.87-0.751,46.416,30.949,62.497c3.678,1.866,7.743,2.811,12.085,2.811c15.828,0,35.7-12.34,54.219-33.068
		C131.569,367.509,129.042,366.763,126.439,366.003z"/>
	<path d="M276.172,62.189c12.786,0,24.223,5.22,34.962,15.96c9.115,9.115,11.603,22.92,7.36,39.616
		c9.602-6.462,19.178-9.98,27.922-9.98c5.036,0,9.792,1.123,14.137,3.337c29.352,14.955,28.93,38.491,28.62,55.676
		c-0.036,2.032-0.067,4.02-0.056,5.943c13.727-6.889,25.322-15.114,32.853-23.947c7.611-8.928,10.762-17.875,9.364-26.592
		c-5.704-35.608-28.337-42.175-50.224-48.526c-9.642-2.797-18.749-5.44-25.796-10.541c-7.678-5.557-13.433-13.755-19.525-22.434
		c-11.52-16.41-23.431-33.378-49.824-33.378c-3.748,0-7.768,0.339-11.947,1.009c-20.054,3.212-28.987,28.625-32.527,43.488
		c-1.487,6.242-2.569,12.945-3.271,19.898c3.292-0.724,7.018-2.048,10.899-3.439C257.084,65.424,266.114,62.189,276.172,62.189z"/>
	<path d="M80.254,180.726c0.028-2.296-0.039-4.745-0.114-7.261c-0.516-17.203-1.222-40.762,28.551-55.932
		c4.345-2.214,9.101-3.336,14.136-3.336c8.349,0,17.457,3.203,26.621,9.117c-6.331-19.186-4.373-35.058,5.734-45.165
		c10.691-10.692,22.104-15.89,34.887-15.89c9.877,0,18.926,3.121,26.909,5.875c1.419,0.49,2.817,0.97,4.191,1.424
		c-0.685-4.98-1.561-9.809-2.666-14.377c-3.594-14.851-12.618-40.235-32.683-43.376c-4.124-0.646-8.094-0.973-11.801-0.973
		c-26.95,0-38.601,17.153-49.868,33.742c-5.641,8.306-10.969,16.151-17.999,21.277c-7.655,5.583-17.23,8.524-27.367,11.638
		c-22.821,7.009-44.376,13.629-49.874,48.746c-1.361,8.696,1.798,17.605,9.392,26.48C47.432,163.382,62.575,173.151,80.254,180.726z
		"/>
	<path d="M328.161,374.443c-1.295,1.753-2.6,3.664-3.935,5.621c-8.438,12.375-19.993,29.324-45.568,29.324
		c-3.304,0-6.804-0.289-10.403-0.859c-12.671-2.006-22.761-11.63-29.146-27.494c-6.21,18.666-16.992,30-30.871,32.198
		c-3.581,0.567-7.063,0.854-10.349,0.854c-25.198,0-36.474-16.121-45.533-29.075c-1.561-2.232-3.085-4.399-4.611-6.387
		c-2.519,4.654-4.752,9.299-6.633,13.862c-5.821,14.126-13.439,39.965,0.946,54.3c11.86,11.818,23.598,17.323,36.938,17.323
		c11.172,0,21.87-3.855,32.217-7.584c9.445-3.404,18.367-6.619,27.066-6.634c9.527,0,18.977,3.24,28.98,6.671
		c10.371,3.556,21.096,7.234,32.052,7.234h0.005c13.408-0.002,25.147-5.516,36.943-17.354c14.313-14.363,6.645-40.121,0.8-54.197
		C334.627,386.394,331.62,380.41,328.161,374.443z"/>
	<path d="M190.069,76.259c-9.005,0-16.944,3.746-24.987,11.789c-9.459,9.458-4.171,27.047-0.177,36.69
		c7.686,18.555,21.693,36.525,36.309,48.605c2.38-3.296,5.398-6.483,9.806-7.914c1.511-0.491,3.127-0.739,4.805-0.739
		c4.22,0,8.227,1.567,11.763,2.949c2.6,1.016,5.287,2.067,7.057,2.067s4.457-1.051,7.057-2.067
		c3.535-1.382,7.543-2.948,11.762-2.948c1.678,0,3.294,0.249,4.805,0.739c3.715,1.206,6.442,3.662,8.633,6.377
		c13.957-12.04,27.143-29.278,34.512-47.07c3.994-9.643,9.282-27.231-0.176-36.69c-8.092-8.091-16.055-11.859-25.063-11.859
		c-7.626,0-15.102,2.679-22.331,5.27c-6.931,2.484-13.477,4.83-20.049,4.83c-7.115,0-14.044-2.39-21.379-4.92
		C205.13,78.856,197.6,76.259,190.069,76.259z"/>
	<path d="M396.271,253.086c11.144-21.87,1.661-34.13-8.379-47.111c-4.504-5.824-8.758-11.324-10.789-17.574
		c-2.199-6.768-2.067-14.096-1.928-21.855c0.296-16.44,0.575-31.969-20.978-42.951c-2.392-1.218-4.936-1.811-7.781-1.811
		c-13.076,0-31.153,13.253-46.055,33.763c-7.177,9.878-12.801,20.322-16.549,30.183c4.48,1.242,9.45,3.059,12.663,7.474
		c3.74,5.139,3.368,11.496,3.069,16.604c-0.16,2.739-0.326,5.571,0.196,7.178c0.467,1.44,2.281,3.633,3.882,5.568
		c3.319,4.014,7.45,9.008,7.45,15.583c0,3.601-1.241,6.724-2.907,9.475c6.998,4.038,14.811,7.587,22.921,10.41
		c3.011,0.836,5.989,1.759,8.917,2.766c9.424,2.568,18.994,4.068,27.956,4.068C378.14,264.857,391.315,262.815,396.271,253.086z"/>
	<path d="M95.897,319.376c3.839,24.242,18.717,28.588,34.468,33.189c7.066,2.064,13.742,4.015,19.059,7.877
		c5.757,4.182,9.957,10.189,14.404,16.547c8.308,11.878,16.155,23.098,34.061,23.098c2.555,0,5.299-0.229,8.159-0.683
		c13.211-2.092,19.271-19.429,21.708-29.577c4.71-19.62,3.901-42.504-0.881-60.914c-3.359,1.307-7.109,2.672-11.051,2.672
		c-1.678,0-3.294-0.249-4.805-0.739c-6.165-2.001-9.621-7.438-12.398-11.805c-1.439-2.264-2.928-4.605-4.208-5.538
		c-1.322-0.962-4.041-1.668-6.67-2.351c-4.976-1.292-11.168-2.9-14.938-8.08c-2.434-3.342-3.123-7.199-3.229-10.893
		c-26.569,3.035-54.982,15.244-67.422,29.811C97.111,307.898,95.005,313.747,95.897,319.376z"/>
	<path d="M246.796,295.599c2.499,0.978,5.084,1.988,6.664,1.988c0.204,0,0.37-0.019,0.48-0.055c1.376-0.447,3.416-3.657,4.906-6.001
		c2.04-3.21,4.354-6.849,7.784-9.346c3.469-2.525,7.677-3.618,11.388-4.583c2.666-0.692,6.317-1.641,7.139-2.768
		c0.79-1.086,0.571-4.821,0.411-7.548c-0.225-3.845-0.48-8.204,0.856-12.32c1.292-3.98,4.011-7.267,6.41-10.168
		c1.889-2.283,4.238-5.124,4.238-6.661c0-1.536-2.351-4.378-4.238-6.661c-2.399-2.9-5.118-6.188-6.41-10.168
		c-1.336-4.115-1.081-8.474-0.856-12.319c0.16-2.728,0.379-6.462-0.412-7.549c-0.82-1.127-4.471-2.075-7.137-2.768
		c-3.712-0.964-7.918-2.057-11.388-4.583c-3.432-2.497-5.745-6.136-7.786-9.347c-1.489-2.344-3.529-5.553-4.904-5.999
		c-0.11-0.036-0.276-0.055-0.48-0.055c-1.58,0-4.165,1.01-6.665,1.988c-3.63,1.419-7.745,3.027-12.153,3.027
		s-8.523-1.609-12.154-3.028c-2.5-0.978-5.085-1.988-6.665-1.988c-0.204,0-0.371,0.019-0.482,0.055
		c-1.375,0.446-3.415,3.656-4.904,5.999c-2.041,3.211-4.355,6.85-7.787,9.348c-3.47,2.525-7.677,3.617-11.389,4.581
		c-2.666,0.692-6.317,1.64-7.139,2.768c-0.79,1.086-0.572,4.822-0.413,7.549c0.225,3.845,0.48,8.203-0.856,12.319
		c-1.293,3.98-4.012,7.267-6.41,10.167c-1.889,2.284-4.239,5.126-4.239,6.662c0,1.537,2.351,4.378,4.239,6.662
		c2.398,2.9,5.117,6.187,6.41,10.167c1.336,4.115,1.081,8.473,0.856,12.318c-0.159,2.728-0.377,6.463,0.414,7.55
		c0.821,1.128,4.472,2.076,7.138,2.768c3.712,0.964,7.918,2.056,11.389,4.581c3.432,2.497,5.745,6.136,7.786,9.347
		c1.489,2.344,3.53,5.554,4.905,6.001c0.111,0.036,0.277,0.055,0.482,0.055c1.58,0,4.165-1.011,6.666-1.988
		c3.63-1.419,7.745-3.028,12.153-3.028S243.166,294.18,246.796,295.599z"/>
</g>
<g>
</g>
<g>
</g>
<g>
</g>
<g>
</g>
<g>
</g>
<g>
</g>
<g>
</g>
<g>
</g>
<g>
</g>
<g>
</g>
<g>
</g>
<g>
</g>
<g>
</g>
<g>
</g>
<g>
</g>
</svg>
