<?xml version="1.0" encoding="iso-8859-1"?>
<!-- Generator: Adobe Illustrator 19.0.0, SVG Export Plug-In . SVG Version: 6.00 Build 0)  -->
<svg version="1.1" id="Capa_1" xmlns="http://www.w3.org/2000/svg" xmlns:xlink="http://www.w3.org/1999/xlink" x="0px" y="0px"
	 viewBox="0 0 489.55 489.55" style="enable-background:new 0 0 489.55 489.55;" xml:space="preserve">
<g>
	<path d="M450.657,49.75c-2.4-13-14.9-20.8-27.1-16.7c-2,1-55.2,19.7-106.8,48.2c-25.1-37.8-50.3-67.8-55.8-74.2
		c-8.3-9.4-24-9.4-31.3,0c-5.5,6-31.2,36.5-56.6,75.1c-51.9-28-105.1-47-108.1-49c-11.7-4.2-25.1,2.7-27.1,16.6
		c-2.1,17.7-25,169.9,13.6,234.5c29.2,50,77.1,79.2,125.1,79.2c7.9,0,25.3-2,35.2-5.3c4.2,1.3,8.4,2.5,12.8,3.3v107.3
		c0,11.5,9.4,20.8,20.8,20.8c11.5,0,20.8-9.4,20.8-20.8v-107.3c4.7-0.9,9.3-2.1,13.8-3.6c11.6,4.5,25.7,5.6,34.2,5.6
		c46.9,0,96.9-29.2,124-78.2C476.757,219.65,453.957,67.35,450.657,49.75z M245.357,51.75c33.4,42.7,86.5,119.9,86.5,163.6
		c0,59.4-38.6,107.4-86.5,107.4s-86.5-47.9-86.5-107.4C158.857,171.65,211.957,94.55,245.357,51.75z M84.757,264.45
		c-21.8-38.6-16.6-130.3-10.4-183.5c20,7.6,48.7,20.4,77.3,36.1c-18.8,33.5-33.5,69.2-33.5,98.4c0,41.1,14.7,78.5,38.2,105.4
		C128.957,314.25,101.957,293.75,84.757,264.45z M403.757,264.45c-16.9,28.4-42.2,48.1-68.4,55.2c22.9-26.8,37.1-63.7,37.1-104.2
		c0-29.5-15.1-65.5-34.2-99.3c27.5-15.2,56.3-27.7,75.9-35.2C420.457,135.15,425.657,226.85,403.757,264.45z"/>
</g>
<g>
</g>
<g>
</g>
<g>
</g>
<g>
</g>
<g>
</g>
<g>
</g>
<g>
</g>
<g>
</g>
<g>
</g>
<g>
</g>
<g>
</g>
<g>
</g>
<g>
</g>
<g>
</g>
<g>
</g>
</svg>
